<svg width="174" height="103" viewBox="0 0 174 103" fill="none" xmlns="http://www.w3.org/2000/svg">
<path d="M159.728 42C159.025 39.848 158.098 37.9197 156.948 36.2152C155.818 34.4893 154.465 33.0192 152.889 31.8047C151.333 30.5902 149.565 29.6633 147.583 29.0241C145.602 28.3849 143.428 28.0653 141.063 28.0653C137.185 28.0653 133.659 29.0668 130.484 31.0696C127.31 33.0724 124.785 36.0234 122.91 39.9226C121.035 43.8217 120.097 48.6051 120.097 54.2727C120.097 59.9403 121.046 64.7237 122.942 68.6229C124.838 72.522 127.406 75.473 130.644 77.4759C133.883 79.4787 137.526 80.4801 141.575 80.4801C145.325 80.4801 148.627 79.6811 151.482 78.0831C154.359 76.4638 156.596 74.1839 158.194 71.2436C159.813 68.282 160.623 64.7983 160.623 60.7926L163.052 61.304H143.364V54.2727H168.293V61.304C168.293 66.6946 167.143 71.3821 164.842 75.3665C162.562 79.3509 159.408 82.4403 155.381 84.6349C151.376 86.8082 146.774 87.8949 141.575 87.8949C135.779 87.8949 130.687 86.5312 126.298 83.804C121.93 81.0767 118.521 77.1989 116.07 72.1705C113.641 67.142 112.427 61.1761 112.427 54.2727C112.427 49.0952 113.119 44.4396 114.504 40.3061C115.911 36.1513 117.892 32.6143 120.449 29.6953C123.006 26.7763 126.031 24.5391 129.526 22.9837C133.02 21.4283 136.866 20.6506 141.063 20.6506C144.515 20.6506 147.732 21.1726 150.715 22.2166C153.72 23.2393 156.394 24.6989 158.737 26.5952C161.102 28.4702 163.073 30.718 164.65 33.3388C166.227 35.9382 167.313 38.8253 167.91 42H159.728Z" fill="#2262C6"/>
<rect x="49" y="22" width="91" height="6" fill="#2262C6"/>
<rect y="81" width="140" height="5" fill="#2262C6"/>
<rect x="26" y="53" width="90" height="6" fill="#2262C6"/>
</svg>
